# xmcd
#
# Track frame offsets:
#	150
#	11712
#	22775
#	36237
#	53212
#	63487
#	75212
#	92162
#	104725
#	116675
#	128625
#	139237
#	150987
#	164325
#	173975
#
# Disc length: 2509
#
# Revision: 1
# Processed by: cddbd v1.5.1PL0 Copyright (c) Steve Scherf et al.
# Submitted via: Feurio! 1.63 - http://www.feurio.com
# Normalized: r0:DSETVAR1
#
DISCID=bc09cb0f
DTITLE=Various Artist - Country Goldstücke CD 2
DYEAR=1997
DGENRE=country
TTITLE0=Sammi Smith - Help Me Make It Through The Night
TTITLE1=Roger Miller - King Of The Road
TTITLE2=Jimmy Dean - Big Bad John
TTITLE3=Lynn Anderson - Blue Bayou
TTITLE4=Al Caiola - Bonanza
TTITLE5=Billy Joe Royal - Down In The Boondocks
TTITLE6=Ferlin Husky - For The Good Times
TTITLE7=Kingston Trio - Greenback Dollar
TTITLE8=Frankie Lane - High Noon
TTITLE9=Jody Miller - Queen Of The House
TTITLE10=Guy Mitchell - Singin' The Blues
TTITLE11=Tennessee Ernie Ford - Sixteen Tons
TTITLE12=Patti Page - The Tennessee Waltz
TTITLE13=New Christy Minstrels - Green, Green
TTITLE14=Gene Pitney - Somewhere In The Country
EXTD=
EXTT0=
EXTT1=
EXTT2=
EXTT3=
EXTT4=
EXTT5=
EXTT6=
EXTT7=
EXTT8=
EXTT9=
EXTT10=
EXTT11=
EXTT12=
EXTT13=
EXTT14=
PLAYORDER=
